<svg width="209" height="49" viewBox="0 0 209 49" fill="none" xmlns="http://www.w3.org/2000/svg">
<g clip-path="url(#clip0_4221_11817)">
<path d="M31.7371 13.211V14.3453V15.4799V16.6144V17.7486V18.8833V20.0179V21.1526V22.2873V23.4214V24.5563V25.6901V26.8261V27.9596V29.0945V30.2302V31.3642V32.4989H32.8708V31.3642V30.2302V29.0945V27.9596V26.8261V25.6901V24.5563V23.4214V22.2873V21.1526V20.0179V18.8833V17.7486V16.6144V15.4799V14.3453V13.211H31.7371ZM24.9367 4.13467V5.26934V6.4034V7.53806V8.67272V9.80699V10.9417V12.0763V13.211V14.3453V15.4799V16.6144V17.7486V18.8833V20.0179V21.1526V22.2873H23.8019H22.6684H21.5355H20.4017H19.2681H18.1351H17.0015H15.868H14.7343H13.6012H12.4677H11.3341H10.2005H9.06757H7.93399V21.1526V20.0179V18.8833V17.7486V16.6144V15.4799V14.3453V13.211V12.0763V10.9417V9.80699V8.67272V7.53806V6.4034V5.26934V4.13467V3H6.80022V4.13467V5.26934V6.4034V7.53806V8.67272V9.80699V10.9417V12.0763V13.211V14.3453V15.4799V16.6144V17.7486V18.8833V20.0179V21.1526V22.2873V23.4214V24.5563V25.6901V26.8261V27.9596V29.0945V30.2302V31.3642V32.4989V33.6326V34.7666V35.9015V37.0372V38.172V39.3065V40.4396V41.5752V42.7101H7.93399V41.5752V40.4396V39.3065V38.172V37.0372V35.9015V34.7666V33.6326V32.4989V31.3642V30.2302V29.0945V27.9596V26.8261V25.6901V24.5563V23.4214H9.06757H10.2005H11.3341H12.4677H13.6012H14.7343H15.868H17.0015H18.1351H19.2681H20.4017H21.5355H22.6684H23.8019H24.9367V24.5563V25.6901V26.8261V27.9596V29.0945V30.2302V31.3642V32.4989V33.6326V34.7666V35.9015V37.0372V38.172V39.3065V40.4396V41.5752V42.7101H26.0704V41.5752V40.4396V39.3065V38.172V37.0372V35.9015V34.7666V33.6326V32.4989V31.3642V30.2302V29.0945V27.9596V26.8261V25.6901V24.5563V23.4214V22.2873V21.1526V20.0179V18.8833V17.7486V16.6144V15.4799V14.3453V13.211V12.0763V10.9417V9.80699V8.67272V7.53806V6.4034V5.26934V4.13467V3H24.9367V4.13467ZM29.4692 10.9417V12.0763V13.211V14.3453V15.4799V16.6144V17.7486V18.8833V20.0179V21.1526V22.2873V23.4214V24.5563V25.6901V26.8261V27.9596V29.0945V30.2302V31.3642V32.4989V33.6326V34.7666V35.9015H30.604V34.7666V33.6326V32.4989V31.3642V30.2302V29.0945V27.9596V26.8261V25.6901V24.5563V23.4214V22.2873V21.1526V20.0179V18.8833V17.7486V16.6144V15.4799V14.3453V13.211V12.0763V10.9417V9.80699H29.4692V10.9417ZM27.2033 7.53806V8.67272V9.80699V10.9417V12.0763V13.211V14.3453V15.4799V16.6144V17.7486V18.8833V20.0179V21.1526V22.2873V23.4214V24.5563V25.6901V26.8261V27.9596V29.0945V30.2302V31.3642V32.4989V33.6326V34.7666V35.9015V37.0372V38.172V39.3065H28.3356V38.172V37.0372V35.9015V34.7666V33.6326V32.4989V31.3642V30.2302V29.0945V27.9596V26.8261V25.6901V24.5563V23.4214V22.2873V21.1526V20.0179V18.8833V17.7486V16.6144V15.4799V14.3453V13.211V12.0763V10.9417V9.80699V8.67272V7.53806V6.4034H27.2033V7.53806ZM21.5355 24.5563H20.4017H19.2681H18.1351H17.0015H15.868H14.7343H13.6012H12.4677H11.3341H10.2005H9.06757V25.6901V26.8261V27.9596V29.0945V30.2302V31.3642V32.4989V33.6326V34.7666V35.9015V37.0372V38.172V39.3065H10.2005V38.172V37.0372V35.9015V34.7666V33.6326V32.4989V31.3642V30.2302V29.0945V27.9596V26.8261V25.6901H11.3341H12.4677H13.6012H14.7343H15.868H17.0015H18.1351H19.2681H20.4017H21.5355H22.6684V26.8261V27.9596V29.0945V30.2302V31.3642V32.4989V33.6326V34.7666V35.9015V37.0372V38.172V39.3065H23.8019V38.172V37.0372V35.9015V34.7666V33.6326V32.4989V31.3642V30.2302V29.0945V27.9596V26.8261V25.6901V24.5563H22.6684H21.5355ZM19.2681 26.8261H18.1351H17.0015H15.868H14.7343H13.6012H12.4677H11.3341V27.9596V29.0945V30.2302V31.3642V32.4989V33.6326V34.7666V35.9015H12.4677V34.7666V33.6326V32.4989V31.3642V30.2302V29.0945V27.9596H13.6012H14.7343H15.868H17.0015H18.1351H19.2681H20.4017V29.0945V30.2302V31.3642V32.4989V33.6326V34.7666V35.9015H21.5355V34.7666V33.6326V32.4989V31.3642V30.2302V29.0945V27.9596V26.8261H20.4017H19.2681ZM17.0015 29.0945H15.868H14.7343H13.6012V30.2302V31.3642V32.4989H14.7343V31.3642V30.2302H15.868H17.0015H18.1351V31.3642V32.4989H19.2681V31.3642V30.2302V29.0945H18.1351H17.0015ZM15.868 16.6144H17.0015H18.1351H19.2681V15.4799V14.3453V13.211H18.1351V14.3453V15.4799H17.0015H15.868H14.7343V14.3453V13.211H13.6012V14.3453V15.4799V16.6144H14.7343H15.868ZM13.6012 18.8833H14.7343H15.868H17.0015H18.1351H19.2681H20.4017H21.5355V17.7486V16.6144V15.4799V14.3453V13.211V12.0763V10.9417V9.80699H20.4017V10.9417V12.0763V13.211V14.3453V15.4799V16.6144V17.7486H19.2681H18.1351H17.0015H15.868H14.7343H13.6012H12.4677V16.6144V15.4799V14.3453V13.211V12.0763V10.9417V9.80699H11.3341V10.9417V12.0763V13.211V14.3453V15.4799V16.6144V17.7486V18.8833H12.4677H13.6012ZM11.3341 21.1526H12.4677H13.6012H14.7343H15.868H17.0015H18.1351H19.2681H20.4017H21.5355H22.6684H23.8019V20.0179V18.8833V17.7486V16.6144V15.4799V14.3453V13.211V12.0763V10.9417V9.80699V8.67272V7.53806V6.4034H22.6684V7.53806V8.67272V9.80699V10.9417V12.0763V13.211V14.3453V15.4799V16.6144V17.7486V18.8833V20.0179H21.5355H20.4017H19.2681H18.1351H17.0015H15.868H14.7343H13.6012H12.4677H11.3341H10.2005V18.8833V17.7486V16.6144V15.4799V14.3453V13.211V12.0763V10.9417V9.80699V8.67272V7.53806V6.4034H9.06757V7.53806V8.67272V9.80699V10.9417V12.0763V13.211V14.3453V15.4799V16.6144V17.7486V18.8833V20.0179V21.1526H10.2005H11.3341ZM4.53368 7.53806V8.67272V9.80699V10.9417V12.0763V13.211V14.3453V15.4799V16.6144V17.7486V18.8833V20.0179V21.1526V22.2873V23.4214V24.5563V25.6901V26.8261V27.9596V29.0945V30.2302V31.3642V32.4989V33.6326V34.7666V35.9015V37.0372V38.172V39.3065H5.66664V38.172V37.0372V35.9015V34.7666V33.6326V32.4989V31.3642V30.2302V29.0945V27.9596V26.8261V25.6901V24.5563V23.4214V22.2873V21.1526V20.0179V18.8833V17.7486V16.6144V15.4799V14.3453V13.211V12.0763V10.9417V9.80699V8.67272V7.53806V6.4034H4.53368V7.53806ZM2.26654 10.9417V12.0763V13.211V14.3453V15.4799V16.6144V17.7486V18.8833V20.0179V21.1526V22.2873V23.4214V24.5563V25.6901V26.8261V27.9596V29.0945V30.2302V31.3642V32.4989V33.6326V34.7666V35.9015H3.40012V34.7666V33.6326V32.4989V31.3642V30.2302V29.0945V27.9596V26.8261V25.6901V24.5563V23.4214V22.2873V21.1526V20.0179V18.8833V17.7486V16.6144V15.4799V14.3453V13.211V12.0763V10.9417V9.80699H2.26654V10.9417ZM0 14.3453V15.4799V16.6144V17.7486V18.8833V20.0179V21.1526V22.2873V23.4214V24.5563V25.6901V26.8261V27.9596V29.0945V30.2302V31.3642V32.4989H1.13357V31.3642V30.2302V29.0945V27.9596V26.8261V25.6901V24.5563V23.4214V22.2873V21.1526V20.0179V18.8833V17.7486V16.6144V15.4799V14.3453V13.211H0V14.3453ZM195.064 30.3415C195.087 32.0952 195.166 33.4888 195.3 34.5229C194.92 34.477 194.505 34.4562 194.054 34.4562H192.538H191.021C190.573 34.4562 190.157 34.477 189.776 34.5229C189.866 33.1294 189.933 31.7062 189.977 30.2577C190.022 28.8069 190.045 27.1486 190.045 25.2835V20.6965C190.045 18.8304 190.022 17.1729 189.977 15.7225C189.933 14.272 189.866 12.8169 189.776 11.3556C190.157 11.4002 190.573 11.4395 191.021 11.4732C191.471 11.5065 191.977 11.5237 192.538 11.5237C193.099 11.5237 193.606 11.5065 194.054 11.4732C194.505 11.4395 194.92 11.4002 195.3 11.3556C195.189 12.0293 195.116 13.041 195.082 14.3898C195.048 15.7384 195.032 17.2346 195.032 18.8761V22.1127C195.795 21.2146 196.614 20.2296 197.49 19.1622C198.368 18.0947 199.209 17.0539 200.017 16.0435C200.827 15.0314 201.555 14.1037 202.208 13.2603C202.859 12.4164 203.331 11.7824 203.623 11.3556C203.937 11.4002 204.251 11.4395 204.566 11.4732C204.88 11.5065 205.194 11.5237 205.508 11.5237C205.824 11.5237 206.144 11.5065 206.469 11.4732C206.794 11.4395 207.149 11.4002 207.53 11.3556C207.149 11.738 206.565 12.3559 205.778 13.2098C204.993 14.0638 204.157 14.9856 203.268 15.9752C202.382 16.9647 201.532 17.9258 200.725 18.8583C199.918 19.7914 199.286 20.5283 198.837 21.067C199.556 22.1697 200.353 23.3828 201.23 24.7097C202.108 26.0363 202.978 27.3342 203.843 28.605C204.706 29.8748 205.508 31.044 206.252 32.1114C206.992 33.179 207.587 33.983 208.036 34.5229C207.385 34.477 206.801 34.4562 206.284 34.4562H204.769H203.303C202.819 34.4562 202.331 34.477 201.837 34.5229C200.692 32.815 199.568 31.0771 198.468 29.3122C197.367 27.5487 196.245 25.7884 195.1 24.0347H195.032C195.032 26.486 195.043 28.5877 195.064 30.3415ZM165.181 14.1542C165.138 13.0981 165.101 12.1645 165.081 11.3556C165.71 11.4679 166.216 11.5237 166.596 11.5237C166.978 11.5237 167.485 11.4679 168.113 11.3556C170.56 14.0751 172.983 16.7507 175.373 19.3818C177.766 22.0121 180.219 24.6875 182.735 27.407V24.4729V21.2022C182.735 20.1012 182.728 19.0159 182.717 17.9485C182.706 16.8802 182.696 15.8961 182.685 14.9971C182.673 14.099 182.651 13.3222 182.616 12.6711C182.582 12.0193 182.543 11.581 182.499 11.3556C183.127 11.4679 183.632 11.5237 184.013 11.5237C184.396 11.5237 184.902 11.4679 185.531 11.3556C185.419 13.4014 185.329 15.2509 185.261 16.9017C185.194 18.5551 185.138 20.1119 185.092 21.5737C185.048 23.0348 185.02 24.4793 185.009 25.9063C184.997 27.3342 184.993 28.8577 184.993 30.4754V34.5229C184.542 34.477 184.084 34.4562 183.611 34.4562C183.116 34.4562 182.678 34.477 182.298 34.5229C177.668 29.1276 172.761 23.6981 167.574 18.2344C167.551 18.8868 167.535 19.5386 167.524 20.1904C167.512 20.8427 167.506 21.5054 167.506 22.1803V26.0924C167.506 27.441 167.512 28.5877 167.524 29.5316C167.535 30.4754 167.551 31.2739 167.574 31.9256C167.595 32.5781 167.618 33.1123 167.641 33.5273C167.664 33.9446 167.686 34.2754 167.71 34.5229C167.439 34.477 167.169 34.4562 166.899 34.4562H166.127C165.609 34.4562 165.092 34.477 164.575 34.5229C164.62 34.343 164.677 33.7033 164.743 32.6005C164.811 31.4992 164.884 30.1557 164.962 28.5704C165.041 26.9861 165.109 25.2655 165.166 23.4102C165.22 21.5566 165.248 19.7755 165.248 18.066C165.248 16.5151 165.227 15.2109 165.181 14.1542ZM150.359 17.6945C149.775 19.0433 149.224 20.3761 148.708 21.6916C148.191 23.007 147.685 24.3503 147.192 25.7217H153.357C152.862 24.3503 152.374 23.007 151.891 21.6916C151.408 20.3761 150.897 19.0433 150.359 17.6945ZM162.285 34.5229C161.746 34.477 161.234 34.4562 160.751 34.4562H159.319H157.888C157.405 34.4562 156.927 34.477 156.457 34.5229C156.097 33.4221 155.727 32.2974 155.344 31.1501C154.962 30.003 154.559 28.8577 154.131 27.7112C153.412 27.6885 152.693 27.6725 151.976 27.66C151.256 27.6488 150.538 27.6426 149.819 27.6426C149.235 27.6426 148.651 27.6488 148.067 27.66C147.483 27.6725 146.899 27.6885 146.315 27.7112C145.866 28.8577 145.45 30.003 145.069 31.1501C144.687 32.2974 144.339 33.4221 144.025 34.5229C143.755 34.477 143.49 34.4562 143.233 34.4562H142.441H141.632C141.363 34.4562 141.072 34.477 140.756 34.5229C141.026 33.9381 141.385 33.1294 141.834 32.0952C142.283 31.0611 142.78 29.8919 143.318 28.5877C143.857 27.2848 144.435 25.8842 145.052 24.389C145.669 22.8939 146.287 21.3828 146.904 19.8534C147.522 18.3247 148.129 16.8185 148.724 15.3335C149.319 13.8509 149.864 12.4676 150.359 11.1854C150.583 11.2331 150.796 11.2711 150.998 11.3043C151.2 11.3376 151.415 11.3556 151.639 11.3556C151.864 11.3556 152.076 11.3376 152.279 11.3043C152.482 11.2711 152.693 11.2331 152.919 11.1854C153.638 13.0981 154.406 15.1445 155.227 17.324C156.045 19.5053 156.871 21.6467 157.703 23.7486C158.533 25.8503 159.342 27.8455 160.128 29.7342C160.916 31.622 161.632 33.2186 162.285 34.5229ZM133.059 24.5921C132.351 23.8157 131.323 23.428 129.976 23.428C129.661 23.428 129.391 23.4341 129.168 23.4453C128.942 23.4567 128.729 23.4624 128.528 23.4624C128.528 23.9331 128.521 24.4225 128.51 24.9291C128.5 25.4347 128.493 26.0363 128.493 26.7322C128.493 27.2722 128.5 27.8235 128.51 28.3857C128.521 28.948 128.528 29.4982 128.528 30.0381C128.528 30.5771 128.533 31.0725 128.544 31.5219C128.555 31.9715 128.561 32.3433 128.561 32.6342C128.875 32.6578 129.168 32.6737 129.437 32.6852C129.706 32.6971 130.031 32.7026 130.414 32.7026C130.907 32.7026 131.38 32.6006 131.829 32.3972C132.278 32.1956 132.671 31.8982 133.008 31.5048C133.344 31.1116 133.614 30.6335 133.817 30.0713C134.019 29.5095 134.119 28.8577 134.119 28.1155C134.119 26.5419 133.767 25.3673 133.059 24.5921ZM133.698 15.6879C133.575 15.2051 133.367 14.7899 133.075 14.4408C132.784 14.0925 132.413 13.8117 131.964 13.5988C131.513 13.384 130.954 13.2777 130.28 13.2777C129.786 13.2777 129.442 13.2824 129.252 13.2936C129.061 13.3061 128.852 13.3335 128.628 13.3781C128.583 14.2101 128.55 15.0535 128.528 15.9073C128.505 16.763 128.493 17.4816 128.493 18.066C128.493 18.6727 128.5 19.2527 128.51 19.8026C128.521 20.3535 128.528 20.9208 128.528 21.5054H130.043C130.515 21.5054 130.98 21.416 131.442 21.2352C131.902 21.0557 132.312 20.7922 132.671 20.4438C133.03 20.0946 133.323 19.6517 133.547 19.1117C133.772 18.5717 133.884 17.9425 133.884 17.2225C133.884 16.6842 133.821 16.1721 133.698 15.6879ZM123.465 15.7225C123.415 14.272 123.339 12.8169 123.238 11.3556C123.62 11.4002 124.034 11.4395 124.483 11.4732C124.933 11.5065 125.439 11.5237 126 11.5237C126.966 11.5237 127.977 11.4953 129.032 11.4395C130.089 11.3842 131.098 11.3556 132.065 11.3556C133.075 11.3556 133.996 11.4566 134.827 11.6589C135.658 11.861 136.377 12.1702 136.982 12.5866C137.589 13.0016 138.056 13.5417 138.381 14.2041C138.707 14.8678 138.869 15.6608 138.869 16.5818C138.869 17.5048 138.679 18.2976 138.296 18.96C137.912 19.623 137.444 20.1739 136.892 20.6115C136.339 21.0511 135.743 21.3941 135.099 21.6403C134.457 21.8883 133.876 22.0567 133.357 22.1458V22.2137C133.873 22.2362 134.477 22.354 135.175 22.5681C135.868 22.7822 136.53 23.1127 137.158 23.5625C137.785 24.0121 138.318 24.5921 138.753 25.299C139.19 26.008 139.409 26.8673 139.409 27.8795C139.409 29.093 139.19 30.1274 138.753 30.982C138.318 31.8366 137.734 32.5341 137.005 33.073C136.275 33.6129 135.443 33.9889 134.5 34.2024C133.559 34.4164 132.584 34.5229 131.575 34.5229C130.678 34.5229 129.845 34.5103 129.071 34.4895C128.298 34.467 127.486 34.4562 126.633 34.4562H124.767C124.129 34.4562 123.62 34.477 123.238 34.5229C123.339 33.1294 123.415 31.7062 123.465 30.2577C123.516 28.8069 123.541 27.1486 123.541 25.2835V20.6965C123.541 18.8304 123.516 17.1729 123.465 15.7225ZM108.448 30.3415C108.469 32.0952 108.549 33.4888 108.684 34.5229C108.302 34.477 107.886 34.4562 107.438 34.4562H105.92H104.405C103.956 34.4562 103.54 34.477 103.159 34.5229C103.248 33.1294 103.316 31.7062 103.361 30.2577C103.405 28.8069 103.429 27.1486 103.429 25.2835V20.6965C103.429 18.8304 103.405 17.1729 103.361 15.7225C103.316 14.272 103.248 12.8169 103.159 11.3556C103.54 11.4002 103.956 11.4395 104.405 11.4732C104.854 11.5065 105.359 11.5237 105.92 11.5237C106.483 11.5237 106.988 11.5065 107.438 11.4732C107.886 11.4395 108.302 11.4002 108.684 11.3556C108.572 12.0293 108.498 13.041 108.465 14.3898C108.431 15.7384 108.415 17.2346 108.415 18.8761V22.1127C109.177 21.2146 109.997 20.2296 110.874 19.1622C111.75 18.0947 112.591 17.0539 113.4 16.0435C114.209 15.0314 114.939 14.1037 115.591 13.2603C116.241 12.4164 116.714 11.7824 117.006 11.3556C117.319 11.4002 117.634 11.4395 117.949 11.4732C118.263 11.5065 118.577 11.5237 118.893 11.5237C119.206 11.5237 119.526 11.5065 119.853 11.4732C120.178 11.4395 120.531 11.4002 120.913 11.3556C120.531 11.738 119.948 12.3559 119.163 13.2098C118.375 14.0638 117.538 14.9856 116.652 15.9752C115.764 16.9647 114.917 17.9258 114.109 18.8583C113.3 19.7914 112.671 20.5283 112.222 21.067C112.94 22.1697 113.737 23.3828 114.614 24.7097C115.489 26.0363 116.359 27.3342 117.224 28.605C118.089 29.8748 118.893 31.044 119.633 32.1114C120.375 33.179 120.97 33.983 121.419 34.5229C120.767 34.477 120.183 34.4562 119.666 34.4562H118.151H116.685C116.202 34.4562 115.713 34.477 115.22 34.5229C114.074 32.815 112.952 31.0771 111.85 29.3122C110.751 27.5487 109.627 25.7884 108.482 24.0347H108.415C108.415 26.486 108.425 28.5877 108.448 30.3415ZM87.6276 15.7225C87.5816 14.272 87.5145 12.8169 87.4255 11.3556C87.807 11.4002 88.2228 11.4395 88.6721 11.4732C89.1211 11.5065 89.6256 11.5237 90.1875 11.5237C90.749 11.5237 91.2541 11.5065 91.7032 11.4732C92.1535 11.4395 92.5682 11.4002 92.9502 11.3556C92.8601 12.8169 92.7935 14.272 92.749 15.7225C92.7031 17.1729 92.6807 18.8304 92.6807 20.6965V25.2835C92.6807 26.5638 92.686 27.8015 92.6984 28.9924C92.709 30.1838 92.725 31.2187 92.749 32.0952C94.0279 32.0952 95.3091 32.0609 96.5882 31.9934C97.8691 31.9256 99.1607 31.8144 100.464 31.6569C100.418 31.9048 100.385 32.1285 100.363 32.3308C100.34 32.5341 100.329 32.815 100.329 33.1738C100.329 33.5332 100.34 33.8146 100.363 34.0173C100.385 34.2195 100.418 34.3879 100.464 34.5229C99.8564 34.5007 99.1102 34.4836 98.2234 34.4724C97.3355 34.461 96.1171 34.4562 94.5676 34.4562H91.2321H89.2274C88.7226 34.4562 88.3399 34.461 88.0827 34.4724C87.8241 34.4836 87.6049 34.5007 87.4255 34.5229C87.5145 33.1294 87.5816 31.7062 87.6276 30.2577C87.672 28.8069 87.6941 27.1486 87.6941 25.2835V20.6965C87.6941 18.8304 87.672 17.1729 87.6276 15.7225ZM73.107 17.6945C72.5224 19.0433 71.9733 20.3761 71.4559 21.6916C70.9391 23.007 70.434 24.3503 69.9403 25.7217H76.1061C75.6112 24.3503 75.1224 23.007 74.6398 21.6916C74.1573 20.3761 73.6464 19.0433 73.107 17.6945ZM85.0335 34.5229C84.4941 34.477 83.9832 34.4562 83.5007 34.4562H82.0689H80.6375C80.1533 34.4562 79.6774 34.477 79.2046 34.5229C78.8457 33.4221 78.4744 32.2974 78.0936 31.1501C77.7109 30.003 77.3063 28.8577 76.8809 27.7112C76.1619 27.6885 75.4432 27.6725 74.7241 27.66C74.0053 27.6488 73.2865 27.6426 72.5688 27.6426C71.9846 27.6426 71.4006 27.6488 70.8161 27.66C70.2319 27.6725 69.648 27.6885 69.064 27.7112C68.6147 28.8577 68.1994 30.003 67.8181 31.1501C67.4359 32.2974 67.0878 33.4221 66.7735 34.5229C66.5039 34.477 66.2395 34.4562 65.9816 34.4562H65.1903H64.3804C64.1125 34.4562 63.8201 34.477 63.5046 34.5229C63.7744 33.9381 64.1345 33.1294 64.5837 32.0952C65.0327 31.0611 65.5264 29.8919 66.0661 28.5877C66.6055 27.2848 67.1834 25.8842 67.8009 24.389C68.4182 22.8939 69.0361 21.3828 69.6545 19.8534C70.2717 18.3247 70.8784 16.8185 71.4731 15.3335C72.0684 13.8509 72.6133 12.4676 73.107 11.1854C73.3321 11.2331 73.5448 11.2711 73.7474 11.3043C73.9496 11.3376 74.1622 11.3556 74.3874 11.3556C74.6113 11.3556 74.8252 11.3376 75.0272 11.3043C75.2298 11.2711 75.4432 11.2331 75.6683 11.1854C76.3859 13.0981 77.1554 15.1445 77.9759 17.324C78.7953 19.5053 79.6205 21.6467 80.4517 23.7486C81.2823 25.8503 82.0913 27.8455 82.8767 29.7342C83.6629 31.622 84.3817 33.2186 85.0335 34.5229ZM53.2976 23.277C52.4438 23.2433 51.5901 23.2256 50.7372 23.2256C49.8835 23.2256 49.0299 23.2371 48.1761 23.2592C47.3224 23.2816 46.4698 23.315 45.616 23.3609V25.2835C45.616 27.1486 45.638 28.8069 45.6825 30.2577C45.7272 31.7062 45.7955 33.1294 45.8859 34.5229C45.5031 34.477 45.0871 34.4562 44.6381 34.4562H43.1224H41.6067C41.1577 34.4562 40.7418 34.477 40.361 34.5229C40.4501 33.1294 40.5164 31.7062 40.5624 30.2577C40.6068 28.8069 40.6288 27.1486 40.6288 25.2835V20.6965C40.6288 18.8304 40.6068 17.1729 40.5624 15.7225C40.5164 14.272 40.4501 12.8169 40.361 11.3556C40.7418 11.4002 41.1577 11.4395 41.6067 11.4732C42.056 11.5065 42.5609 11.5237 43.1224 11.5237C43.6844 11.5237 44.1889 11.5065 44.6381 11.4732C45.0871 11.4395 45.5031 11.4002 45.8859 11.3556C45.7728 12.8169 45.6997 14.2612 45.6664 15.6879C45.6332 17.1158 45.616 18.763 45.616 20.6286C46.2 20.652 46.9017 20.6679 47.7216 20.6792C48.5409 20.6919 49.5581 20.6965 50.7707 20.6965C51.9834 20.6965 52.9718 20.6919 53.7354 20.6792C54.4987 20.6679 55.2054 20.652 55.8577 20.6286C55.8577 18.763 55.8357 17.1158 55.7912 15.6879C55.7448 14.2612 55.6781 12.8169 55.5878 11.3556C55.9706 11.4002 56.3847 11.4395 56.8338 11.4732C57.2841 11.5065 57.7892 11.5237 58.351 11.5237C58.9116 11.5237 59.4177 11.5065 59.8669 11.4732C60.316 11.4395 60.732 11.4002 61.1138 11.3556C61.0236 12.8169 60.956 14.272 60.9112 15.7225C60.8667 17.1729 60.8442 18.8304 60.8442 20.6965V25.2835C60.8442 27.1486 60.8667 28.8069 60.9112 30.2577C60.956 31.7062 61.0236 33.1294 61.1138 34.5229C60.732 34.477 60.316 34.4562 59.8669 34.4562H58.351H56.8338C56.3847 34.4562 55.9706 34.477 55.5878 34.5229C55.6781 33.1294 55.7448 31.7062 55.7912 30.2577C55.8357 28.8069 55.8577 27.1486 55.8577 25.2835V23.3609C55.0039 23.3387 54.15 23.3103 53.2976 23.277Z" fill="#005092"/>
</g>
<defs>
<clipPath id="clip0_4221_11817">
<rect width="209" height="49" fill="white"/>
</clipPath>
</defs>
</svg>
